<svg xmlns="http://www.w3.org/2000/svg" viewBox="0 0 64 64" role="img" aria-label="Open book favicon">
  <rect width="64" height="64" rx="12" fill="#fff"></rect>

  <!-- Left and right pages -->
  <path d="M31 49c-5.8-4.3-12.4-6.4-21-6.4V17.5c0-1.7 1.3-3 3-3 7.4.2 13.4 2.1 18 5.8V49z" fill="#000"></path>
  <path d="M33 49c5.8-4.3 12.4-6.4 21-6.4V17.5c0-1.7-1.3-3-3-3-7.4.2-13.4 2.1-18 5.8V49z" fill="#000"></path>

  <!-- White gutter so the black center line is visible -->
  <rect x="30.6" y="20.2" width="2.8" height="28.8" rx="1.2" fill="#fff"></rect>

  <!-- Black center crease -->
  <path d="M32 20.4V49" fill="none" stroke="#000" stroke-width="1.7" stroke-linecap="round"></path>

  <!-- White page accents -->
  <path d="M17.5 23.5c4.1.3 7.3 1.2 9.8 2.7M17.5 31.5c3.8.3 7.1 1.1 9.8 2.5M46.5 23.5c-4.1.3-7.3 1.2-9.8 2.7M46.5 31.5c-3.8.3-7.1 1.1-9.8 2.5" fill="none" stroke="#fff" stroke-width="2.6" stroke-linecap="round"></path>
</svg>