<svg xmlns="http://www.w3.org/2000/svg" viewBox="0 0 64 64" role="img" aria-labelledby="title">
  <title>United Nations</title>
  <rect width="64" height="64" rx="16" fill="#009EDB"/>
  <circle cx="32" cy="32" r="15.5" fill="none" stroke="#ffffff" stroke-width="2"/>
  <path d="M20 39c2.8 5.2 7 8.2 12 8.2S41.2 44.2 44 39" fill="none" stroke="#ffffff" stroke-linecap="round" stroke-width="2"/>
  <path d="M20 25c2.8-5.2 7-8.2 12-8.2S41.2 19.8 44 25" fill="none" stroke="#ffffff" stroke-linecap="round" stroke-width="2"/>
  <path d="M25 18.5c-2.4 3.7-3.8 8.3-3.8 13.5s1.4 9.8 3.8 13.5" fill="none" stroke="#ffffff" stroke-linecap="round" stroke-width="2"/>
  <path d="M39 18.5c2.4 3.7 3.8 8.3 3.8 13.5s-1.4 9.8-3.8 13.5" fill="none" stroke="#ffffff" stroke-linecap="round" stroke-width="2"/>
  <path d="M17.5 25.5c-1.8 2.2-2.9 4.5-3.4 6.5.5 2 1.6 4.3 3.4 6.5" fill="none" stroke="#ffffff" stroke-linecap="round" stroke-width="2"/>
  <path d="M46.5 25.5c1.8 2.2 2.9 4.5 3.4 6.5-.5 2-1.6 4.3-3.4 6.5" fill="none" stroke="#ffffff" stroke-linecap="round" stroke-width="2"/>
</svg>
